CalSansText-Medium.ufo
<glyph name="dollar" format="2">
  <advance width="582.1"/>
  <unicode hex="0024"/>
  <anchor x="306.625" y="653.0" name="_TopCurrency"/>
  <outline>
    <contour>
      <point x="297.625" y="27.0" type="curve" smooth="yes"/>
      <point x="441.92499999999995" y="27.0"/>
      <point x="540.5" y="97.75"/>
      <point x="540.5" y="224.22500000000002" type="curve" smooth="yes"/>
      <point x="540.5" y="470.05"/>
      <point x="197.85" y="356.9"/>
      <point x="197.85" y="494.29999999999995" type="curve" smooth="yes"/>
      <point x="197.85" y="540.15"/>
      <point x="237.3" y="569.9749999999999"/>
      <point x="308.625" y="569.9749999999999" type="curve" smooth="yes"/>
      <point x="369.1" y="569.9749999999999"/>
      <point x="411.55" y="543.3"/>
      <point x="445.175" y="488.15" type="curve"/>
      <point x="535.975" y="549.25" type="line"/>
      <point x="485.75" y="623.5250000000001"/>
      <point x="420.6" y="672.525"/>
      <point x="315.8" y="672.525" type="curve" smooth="yes"/>
      <point x="172.525" y="672.525"/>
      <point x="82.025" y="593.75"/>
      <point x="82.025" y="484.54999999999995" type="curve" smooth="yes"/>
      <point x="82.025" y="249.325"/>
      <point x="424.15" y="360.3"/>
      <point x="424.15" y="214.95" type="curve" smooth="yes"/>
      <point x="424.15" y="155.75"/>
      <point x="369.5" y="130.55"/>
      <point x="302.2" y="130.55" type="curve" smooth="yes"/>
      <point x="233.175" y="130.55"/>
      <point x="178.39999999999998" y="160.22500000000002"/>
      <point x="136.725" y="229.85" type="curve"/>
      <point x="43.55" y="165.8" type="line"/>
      <point x="103.25" y="71.775"/>
      <point x="189.77499999999998" y="27.0"/>
    </contour>
    <component base="verticalTopCurrencycomb" xOffset="306.625"/>
    <component base="verticalBottomCurrencycomb" xOffset="306.625"/>
  </outline>
</glyph>
<glyph name="hyphen" format="2">
  <advance width="388.1"/>
  <unicode hex="002D"/>
  <outline>
    <contour>
      <point x="51.05" y="224.175" type="line"/>
      <point x="337.05" y="224.175" type="line"/>
      <point x="337.05" y="327.35" type="line"/>
      <point x="51.05" y="327.35" type="line"/>
    </contour>
  </outline>
</glyph>
<glyph name="zero" format="2">
  <advance width="632.0"/>
  <unicode hex="0030"/>
  <outline>
    <contour>
      <point x="316.0" y="-13.0" type="curve" smooth="yes"/>
      <point x="465.975" y="-12.475000000000001"/>
      <point x="572.25" y="100.075"/>
      <point x="572.25" y="248.5" type="curve" smooth="yes"/>
      <point x="572.25" y="455.79999999999995" type="line" smooth="yes"/>
      <point x="572.25" y="597.925"/>
      <point x="465.975" y="711.525"/>
      <point x="316.0" y="711.0" type="curve" smooth="yes"/>
      <point x="166.02499999999998" y="710.4749999999999"/>
      <point x="59.75" y="597.925"/>
      <point x="59.75" y="453.17499999999995" type="curve" smooth="yes"/>
      <point x="59.75" y="244.825" type="line" smooth="yes"/>
      <point x="59.75" y="100.075"/>
      <point x="166.02499999999998" y="-13.525"/>
    </contour>
    <contour>
      <point x="316.0" y="89.175" type="curve" smooth="yes"/>
      <point x="228.425" y="89.175"/>
      <point x="174.825" y="156.7"/>
      <point x="174.825" y="258.725" type="curve" smooth="yes"/>
      <point x="174.825" y="444.575" type="line" smooth="yes"/>
      <point x="174.825" y="547.15"/>
      <point x="228.425" y="608.825"/>
      <point x="316.0" y="608.825" type="curve" smooth="yes"/>
      <point x="403.575" y="608.825"/>
      <point x="457.17499999999995" y="545.575"/>
      <point x="457.17499999999995" y="441.95" type="curve" smooth="yes"/>
      <point x="457.17499999999995" y="255.575" type="line" smooth="yes"/>
      <point x="457.17499999999995" y="155.125"/>
      <point x="403.575" y="89.175"/>
    </contour>
  </outline>
</glyph>
<glyph name="three" format="2">
  <advance width="572.2"/>
  <unicode hex="0033"/>
  <outline>
    <contour>
      <point x="268.65" y="-13.0" type="curve" smooth="yes"/>
      <point x="409.20000000000005" y="-13.0"/>
      <point x="504.77500000000003" y="70.425"/>
      <point x="504.77500000000003" y="201.425" type="curve" smooth="yes"/>
      <point x="504.77500000000003" y="277.25"/>
      <point x="452.15" y="350.67499999999995"/>
      <point x="374.25" y="371.1" type="curve"/>
      <point x="374.25" y="375.1" type="line"/>
      <point x="442.35" y="389.675"/>
      <point x="488.775" y="456.5"/>
      <point x="488.775" y="520.675" type="curve" smooth="yes"/>
      <point x="488.775" y="634.0"/>
      <point x="397.55" y="713.0"/>
      <point x="267.70000000000005" y="713.0" type="curve" smooth="yes"/>
      <point x="136.55" y="713.0"/>
      <point x="35.525000000000006" y="634.0"/>
      <point x="38.525000000000006" y="500.0" type="curve"/>
      <point x="146.75" y="500.0" type="line"/>
      <point x="143.75" y="568.05"/>
      <point x="196.10000000000002" y="612.4000000000001"/>
      <point x="267.75" y="612.4000000000001" type="curve" smooth="yes"/>
      <point x="337.3" y="612.4000000000001"/>
      <point x="380.025" y="570.575"/>
      <point x="380.025" y="506.92499999999995" type="curve" smooth="yes"/>
      <point x="380.025" y="444.525"/>
      <point x="334.625" y="402.75"/>
      <point x="255.25" y="402.75" type="curve" smooth="yes"/>
      <point x="174.975" y="402.75" type="line"/>
      <point x="174.975" y="308.375" type="line"/>
      <point x="253.675" y="309.375" type="line" smooth="yes"/>
      <point x="343.95000000000005" y="309.85"/>
      <point x="393.6" y="269.45000000000005"/>
      <point x="393.6" y="199.375" type="curve" smooth="yes"/>
      <point x="393.6" y="132.675"/>
      <point x="348.1" y="83.32499999999999"/>
      <point x="268.65" y="83.32499999999999" type="curve" smooth="yes"/>
      <point x="197.15" y="83.32499999999999"/>
      <point x="141.325" y="134.725"/>
      <point x="144.325" y="209.0" type="curve"/>
      <point x="33.2" y="209.0" type="line"/>
      <point x="30.200000000000003" y="73.0"/>
      <point x="125.57499999999999" y="-13.0"/>
    </contour>
  </outline>
</glyph>
<glyph name="six" format="2">
  <advance width="587.2750000000001"/>
  <unicode hex="0036"/>
  <outline>
    <contour>
      <point x="301.725" y="-13.0" type="curve" smooth="yes"/>
      <point x="444.85" y="-13.0"/>
      <point x="545.55" y="84.32499999999999"/>
      <point x="545.55" y="220.175" type="curve" smooth="yes"/>
      <point x="545.55" y="380.0"/>
      <point x="411.5" y="473.79999999999995"/>
      <point x="270.175" y="426.32500000000005" type="curve"/>
      <point x="268.7" y="429.275" type="line"/>
      <point x="438.475" y="700.0" type="line"/>
      <point x="308.54999999999995" y="700.0" type="line"/>
      <point x="120.625" y="400.625" type="line" smooth="yes"/>
      <point x="80.025" y="336.6"/>
      <point x="57.275000000000006" y="276.95"/>
      <point x="57.275000000000006" y="218.6" type="curve" smooth="yes"/>
      <point x="57.275000000000006" y="84.32499999999999"/>
      <point x="157.025" y="-13.0"/>
    </contour>
    <contour>
      <point x="301.725" y="88.125" type="curve" smooth="yes"/>
      <point x="225.425" y="88.125"/>
      <point x="171.825" y="142.325"/>
      <point x="171.825" y="220.175" type="curve" smooth="yes"/>
      <point x="171.825" y="291.2"/>
      <point x="223.325" y="351.82500000000005"/>
      <point x="305.875" y="351.82500000000005" type="curve" smooth="yes"/>
      <point x="378.975" y="351.82500000000005"/>
      <point x="432.05" y="291.2"/>
      <point x="432.05" y="218.6" type="curve" smooth="yes"/>
      <point x="432.05" y="142.325"/>
      <point x="377.4" y="88.125"/>
    </contour>
  </outline>
</glyph>
<glyph name="O" format="2">
  <advance width="785.6"/>
  <unicode hex="004F"/>
  <anchor x="390.0" y="0.0" name="bottom"/>
  <anchor x="383.0" y="338.0" name="center"/>
  <anchor x="487.9" y="0.0" name="ogonek"/>
  <anchor x="390.0" y="700.0" name="top"/>
  <anchor x="597.375" y="700.0" name="topright"/>
  <outline>
    <contour>
      <point x="392.8" y="-13.0" type="curve" smooth="yes"/>
      <point x="597.375" y="-13.0"/>
      <point x="744.125" y="146.2"/>
      <point x="744.125" y="349.525" type="curve" smooth="yes"/>
      <point x="744.125" y="554.375"/>
      <point x="597.375" y="713.0"/>
      <point x="392.8" y="713.0" type="curve" smooth="yes"/>
      <point x="188.225" y="713.0"/>
      <point x="41.475" y="553.325"/>
      <point x="41.475" y="349.0" type="curve" smooth="yes"/>
      <point x="41.475" y="145.15"/>
      <point x="188.225" y="-13.0"/>
    </contour>
    <contour>
      <point x="392.8" y="92.45" type="curve" smooth="yes"/>
      <point x="254.75" y="92.45"/>
      <point x="153.5" y="189.39999999999998"/>
      <point x="153.5" y="349.0" type="curve" smooth="yes"/>
      <point x="153.5" y="508.6"/>
      <point x="254.75" y="607.55"/>
      <point x="392.8" y="607.55" type="curve" smooth="yes"/>
      <point x="530.9" y="607.55"/>
      <point x="632.0999999999999" y="509.125"/>
      <point x="632.0999999999999" y="349.525" type="curve" smooth="yes"/>
      <point x="632.0999999999999" y="189.925"/>
      <point x="530.9" y="92.45"/>
    </contour>
  </outline>
</glyph>
<glyph name="S" format="2">
  <advance width="598.675"/>
  <unicode hex="0053"/>
  <anchor x="299.6" y="0.0" name="bottom"/>
  <anchor x="393.825" y="0.0" name="ogonek"/>
  <anchor x="316.975" y="700.0" name="top"/>
  <outline>
    <contour>
      <point x="300.125" y="-13.0" type="curve" smooth="yes"/>
      <point x="444.425" y="-13.0"/>
      <point x="543.0" y="67.75"/>
      <point x="543.0" y="194.22500000000002" type="curve" smooth="yes"/>
      <point x="543.0" y="441.025"/>
      <point x="200.35000000000002" y="379.67499999999995"/>
      <point x="200.35000000000002" y="518.6" type="curve" smooth="yes"/>
      <point x="200.35000000000002" y="573.95"/>
      <point x="242.175" y="609.9749999999999"/>
      <point x="316.35" y="609.9749999999999" type="curve" smooth="yes"/>
      <point x="371.6" y="609.9749999999999"/>
      <point x="413.525" y="582.775"/>
      <point x="447.15" y="527.625" type="curve"/>
      <point x="538.475" y="589.25" type="line"/>
      <point x="488.25" y="663.5250000000001"/>
      <point x="423.1" y="712.525"/>
      <point x="318.29999999999995" y="712.525" type="curve" smooth="yes"/>
      <point x="175.025" y="712.525"/>
      <point x="84.525" y="623.75"/>
      <point x="84.525" y="514.55" type="curve" smooth="yes"/>
      <point x="84.525" y="270.275"/>
      <point x="426.65" y="344.65"/>
      <point x="426.65" y="190.65" type="curve" smooth="yes"/>
      <point x="426.65" y="125.75"/>
      <point x="372.0" y="90.55"/>
      <point x="304.7" y="90.55" type="curve" smooth="yes"/>
      <point x="235.675" y="90.55"/>
      <point x="181.95" y="121.275"/>
      <point x="140.275" y="190.89999999999998" type="curve"/>
      <point x="46.05" y="125.8" type="line"/>
      <point x="105.75" y="31.775"/>
      <point x="192.27499999999998" y="-13.0"/>
    </contour>
  </outline>
</glyph>
<glyph name="bracketleft" format="2">
  <advance width="328.075"/>
  <unicode hex="005B"/>
  <outline>
    <contour>
      <point x="83.95" y="-220.0" type="line"/>
      <point x="270.7" y="-220.0" type="line"/>
      <point x="270.7" y="-139.25" type="line"/>
      <point x="180.45" y="-139.25" type="line"/>
      <point x="180.45" y="659.25" type="line"/>
      <point x="270.7" y="659.25" type="line"/>
      <point x="270.7" y="740.0" type="line"/>
      <point x="83.95" y="740.0" type="line"/>
    </contour>
  </outline>
</glyph>
<glyph name="sterling" format="2">
  <advance width="590.5"/>
  <unicode hex="00A3"/>
  <outline>
    <contour>
      <point x="106.85" y="20.0" type="line"/>
      <point x="131.85000000000002" y="55.0"/>
      <point x="170.85" y="69.0"/>
      <point x="216.85000000000002" y="69.0" type="curve" smooth="yes"/>
      <point x="291.85" y="69.0"/>
      <point x="310.5" y="24.0"/>
      <point x="401.25" y="24.0" type="curve" smooth="yes"/>
      <point x="446.25" y="24.0"/>
      <point x="516.25" y="45.0"/>
      <point x="563.25" y="109.0" type="curve"/>
      <point x="488.57500000000005" y="179.7" type="line"/>
      <point x="467.525" y="146.975"/>
      <point x="437.9" y="125.5"/>
      <point x="396.275" y="125.5" type="curve" smooth="yes"/>
      <point x="322.4" y="125.5"/>
      <point x="286.7" y="172.175"/>
      <point x="190.60000000000002" y="135.85" type="curve" smooth="yes"/>
      <point x="175.05" y="130.0"/>
      <point x="155.125" y="129.375"/>
      <point x="129.925" y="117.4" type="curve"/>
      <point x="168.05" y="109.19999999999999" type="line"/>
      <point x="227.575" y="150.925"/>
      <point x="268.6" y="224.0"/>
      <point x="268.6" y="263.04999999999995" type="curve" smooth="yes"/>
      <point x="268.6" y="289.525"/>
      <point x="265.17499999999995" y="306.67499999999995"/>
      <point x="250.64999999999998" y="328.1" type="curve"/>
      <point x="237.4" y="346.725" type="line"/>
      <point x="198.3" y="397.1"/>
      <point x="184.775" y="429.075"/>
      <point x="184.775" y="465.54999999999995" type="curve" smooth="yes"/>
      <point x="184.775" y="532.775"/>
      <point x="233.75" y="572.4000000000001"/>
      <point x="302.55" y="572.4000000000001" type="curve" smooth="yes"/>
      <point x="373.775" y="572.4000000000001"/>
      <point x="424.8" y="520.875"/>
      <point x="424.8" y="452.6" type="curve"/>
      <point x="537.25" y="452.6" type="line"/>
      <point x="537.25" y="582.825"/>
      <point x="444.25" y="673.0"/>
      <point x="298.75" y="673.0" type="curve" smooth="yes"/>
      <point x="157.95" y="673.0"/>
      <point x="70.75" y="585.275"/>
      <point x="70.75" y="473.35" type="curve" smooth="yes"/>
      <point x="70.75" y="415.9"/>
      <point x="94.8" y="377.125"/>
      <point x="147.7" y="332.625" type="curve"/>
      <point x="141.75" y="327.3" type="line"/>
      <point x="153.8" y="311.82500000000005"/>
      <point x="164.75" y="291.625"/>
      <point x="164.75" y="259.625" type="curve" smooth="yes"/>
      <point x="164.75" y="231.375"/>
      <point x="123.5" y="182.075"/>
      <point x="76.5" y="130.075" type="curve" smooth="yes"/>
      <point x="32.825" y="81.875" type="line"/>
    </contour>
    <contour>
      <point x="35.0" y="296.15" type="line"/>
      <point x="401.5" y="296.15" type="line"/>
      <point x="401.5" y="374.325" type="line"/>
      <point x="35.0" y="374.325" type="line"/>
    </contour>
  </outline>
</glyph>
<glyph name="paragraph" format="2">
  <advance width="588.0999999999999"/>
  <unicode hex="00B6"/>
  <outline>
    <contour>
      <point x="287.05" y="0.0" type="line"/>
      <point x="356.8" y="0.0" type="line"/>
      <point x="356.8" y="618.9000000000001" type="line"/>
      <point x="437.3" y="618.9000000000001" type="line"/>
      <point x="437.3" y="0.0" type="line"/>
      <point x="507.04999999999995" y="0.0" type="line"/>
      <point x="507.04999999999995" y="700.0" type="line"/>
      <point x="257.05" y="700.0" type="line" smooth="yes"/>
      <point x="123.05000000000001" y="700.0"/>
      <point x="41.05" y="636.0"/>
      <point x="41.05" y="510.0" type="curve" smooth="yes"/>
      <point x="41.05" y="384.0"/>
      <point x="123.05000000000001" y="318.0"/>
      <point x="257.05" y="318.0" type="curve" smooth="yes"/>
      <point x="287.05" y="318.0" type="line"/>
    </contour>
  </outline>
</glyph>
<glyph name="Thorn" format="2">
  <advance width="596.425"/>
  <unicode hex="00DE"/>
  <anchor x="300.0" y="0.0" name="bottom"/>
  <anchor x="300.0" y="700.0" name="top"/>
  <outline>
    <contour>
      <point x="81.05000000000001" y="0.0" type="line"/>
      <point x="190.60000000000002" y="0.0" type="line"/>
      <point x="190.60000000000002" y="137.65" type="line"/>
      <point x="315.5" y="137.65" type="line" smooth="yes"/>
      <point x="456.75" y="137.65"/>
      <point x="555.375" y="209.825"/>
      <point x="555.375" y="352.05" type="curve" smooth="yes"/>
      <point x="555.375" y="493.275"/>
      <point x="456.225" y="565.825"/>
      <point x="315.5" y="565.825" type="curve" smooth="yes"/>
      <point x="190.60000000000002" y="565.825" type="line"/>
      <point x="190.60000000000002" y="700.0" type="line"/>
      <point x="81.05000000000001" y="700.0" type="line"/>
    </contour>
    <contour>
      <point x="190.60000000000002" y="241.675" type="line"/>
      <point x="190.60000000000002" y="461.8" type="line"/>
      <point x="307.5" y="461.8" type="line" smooth="yes"/>
      <point x="390.85" y="461.8"/>
      <point x="443.3" y="431.225"/>
      <point x="443.3" y="351.57500000000005" type="curve" smooth="yes"/>
      <point x="443.3" y="270.4"/>
      <point x="390.85" y="241.675"/>
      <point x="307.5" y="241.675" type="curve" smooth="yes"/>
    </contour>
  </outline>
</glyph>
<glyph name="Hbar" format="2">
  <advance width="725.2750000000001"/>
  <unicode hex="0126"/>
  <anchor x="365.0" y="0.0" name="bottom"/>
  <anchor x="534.675" y="0.0" name="ogonek"/>
  <anchor x="365.0" y="700.0" name="top"/>
  <outline>
    <contour>
      <point x="12.100000000000001" y="517.45" type="line"/>
      <point x="713.175" y="517.45" type="line"/>
      <point x="713.175" y="611.2" type="line"/>
      <point x="12.100000000000001" y="611.2" type="line"/>
    </contour>
    <component base="H"/>
  </outline>
</glyph>
<glyph name="verticallinemod" format="2">
  <advance width="248.22500000000002"/>
  <unicode hex="02C8"/>
  <outline>
    <contour>
      <point x="71.05000000000001" y="420.0" type="line"/>
      <point x="177.175" y="420.0" type="line"/>
      <point x="177.175" y="740.0" type="line"/>
      <point x="71.05000000000001" y="740.0" type="line"/>
      <point x="71.05000000000001" y="475.29999999999995" type="line"/>
    </contour>
  </outline>
</glyph>
<glyph name="sheqel" format="2">
  <advance width="591.075"/>
  <unicode hex="20AA"/>
  <outline>
    <contour>
      <point x="237.52499999999998" y="30.0" type="line"/>
      <point x="369.225" y="30.0" type="line" smooth="yes"/>
      <point x="514.225" y="30.0"/>
      <point x="550.075" y="103.0"/>
      <point x="550.075" y="230.0" type="curve" smooth="yes"/>
      <point x="550.075" y="466.125" type="line"/>
      <point x="472.95" y="466.125" type="line"/>
      <point x="472.95" y="237.175" type="line" smooth="yes"/>
      <point x="472.95" y="173.02499999999998"/>
      <point x="442.9" y="131.65"/>
      <point x="357.675" y="131.65" type="curve" smooth="yes"/>
      <point x="237.52499999999998" y="131.65" type="line"/>
    </contour>
    <contour>
      <point x="42.0" y="30.0" type="line"/>
      <point x="119.125" y="30.0" type="line"/>
      <point x="119.125" y="467.125" type="line"/>
      <point x="42.0" y="467.125" type="line"/>
    </contour>
    <contour>
      <point x="186.52499999999998" y="30.0" type="line"/>
      <point x="263.65" y="30.0" type="line"/>
      <point x="263.65" y="308.075" type="line"/>
      <point x="186.52499999999998" y="308.075" type="line"/>
    </contour>
    <contour>
      <point x="327.9" y="188.05" type="line"/>
      <point x="405.55" y="188.05" type="line"/>
      <point x="405.55" y="267.125" type="line" smooth="yes"/>
      <point x="405.55" y="394.125"/>
      <point x="376.525" y="467.125"/>
      <point x="231.525" y="467.125" type="curve" smooth="yes"/>
      <point x="93.0" y="467.125" type="line"/>
      <point x="93.0" y="365.475" type="line"/>
      <point x="220.5" y="365.475" type="line" smooth="yes"/>
      <point x="303.575" y="365.475"/>
      <point x="327.9" y="326.95"/>
      <point x="327.9" y="260.42499999999995" type="curve" smooth="yes"/>
    </contour>
  </outline>
</glyph>
<glyph name="rupeeIndian" format="2">
  <advance width="623.2"/>
  <unicode hex="20B9"/>
  <outline>
    <contour>
      <point x="354.65" y="25.25" type="line"/>
      <point x="486.05" y="25.25" type="line"/>
      <point x="270.6" y="295.85" type="line"/>
      <point x="265.5" y="256.625" type="line"/>
      <point x="390.45" y="265.325"/>
      <point x="485.375" y="338.45000000000005"/>
      <point x="485.375" y="462.07500000000005" type="curve" smooth="yes"/>
      <point x="485.375" y="591.7"/>
      <point x="383.075" y="670.0"/>
      <point x="247.525" y="670.0" type="curve" smooth="yes"/>
      <point x="36.3" y="670.0" type="line"/>
      <point x="36.3" y="565.975" type="line"/>
      <point x="231.25" y="565.975" type="line" smooth="yes"/>
      <point x="325.35" y="565.975"/>
      <point x="372.775" y="534.925"/>
      <point x="372.775" y="461.6" type="curve" smooth="yes"/>
      <point x="372.775" y="386.225"/>
      <point x="325.35" y="354.7"/>
      <point x="231.25" y="354.7" type="curve" smooth="yes"/>
      <point x="36.3" y="354.7" type="line"/>
      <point x="36.3" y="253.05" type="line"/>
      <point x="172.325" y="253.05" type="line"/>
    </contour>
    <contour>
      <point x="36.3" y="421.225" type="line"/>
      <point x="546.375" y="421.225" type="line"/>
      <point x="599.125" y="499.4" type="line"/>
      <point x="90.05" y="499.4" type="line"/>
    </contour>
    <contour>
      <point x="210.15" y="591.825" type="line"/>
      <point x="581.6" y="591.825" type="line"/>
      <point x="634.875" y="670.0" type="line"/>
      <point x="210.15" y="670.0" type="line"/>
    </contour>
  </outline>
</glyph>
<glyph name="upDownArrow" format="2">
  <advance width="600.0"/>
  <unicode hex="2195"/>
  <outline>
    <contour>
      <point x="299.475" y="-28.275" type="line"/>
      <point x="543.85" y="224.525" type="line"/>
      <point x="475.5" y="287.6" type="line"/>
      <point x="357.875" y="158.39999999999998" type="line"/>
      <point x="350.92499999999995" y="161.35" type="line"/>
      <point x="350.92499999999995" y="575.7" type="line"/>
      <point x="357.875" y="578.65" type="line"/>
      <point x="474.65" y="448.92499999999995" type="line"/>
      <point x="544.9000000000001" y="512.0" type="line"/>
      <point x="300.525" y="764.8" type="line"/>
      <point x="56.150000000000006" y="512.0" type="line"/>
      <point x="124.5" y="448.92499999999995" type="line"/>
      <point x="242.125" y="578.125" type="line"/>
      <point x="249.075" y="575.175" type="line"/>
      <point x="249.075" y="160.825" type="line"/>
      <point x="242.125" y="157.875" type="line"/>
      <point x="125.35" y="287.6" type="line"/>
      <point x="55.099999999999994" y="224.525" type="line"/>
    </contour>
  </outline>
</glyph>
<glyph name="heavyBallotX" format="2">
  <advance width="600.0"/>
  <unicode hex="2718"/>
  <outline>
    <contour>
      <point x="164.925" y="159.425" type="curve" smooth="yes"/>
      <point x="249.45" y="236.425"/>
      <point x="425.275" y="460.875"/>
      <point x="461.32500000000005" y="566.4000000000001" type="curve" smooth="yes"/>
      <point x="471.7" y="596.05"/>
      <point x="445.20000000000005" y="611.75"/>
      <point x="428.925" y="588.0999999999999" type="curve" smooth="yes"/>
      <point x="331.775" y="445.20000000000005"/>
      <point x="177.0" y="256.6"/>
      <point x="127.525" y="181.125" type="curve" smooth="yes"/>
      <point x="107.3" y="150.525"/>
      <point x="137.75" y="135.2"/>
    </contour>
    <contour>
      <point x="406.125" y="173.625" type="curve" smooth="yes"/>
      <point x="422.55" y="149.35000000000002"/>
      <point x="449.25" y="154.25"/>
      <point x="465.475" y="185.9" type="curve" smooth="yes"/>
      <point x="477.225" y="207.175"/>
      <point x="478.65" y="237.4"/>
      <point x="468.75" y="252.25" type="curve" smooth="yes"/>
      <point x="424.275" y="321.9"/>
      <point x="260.775" y="498.42499999999995"/>
      <point x="211.39999999999998" y="578.375" type="curve" smooth="yes"/>
      <point x="195.45" y="602.6500000000001"/>
      <point x="168.75" y="597.275"/>
      <point x="152.05" y="566.0999999999999" type="curve" smooth="yes"/>
      <point x="140.775" y="544.825"/>
      <point x="139.35" y="514.125"/>
      <point x="149.25" y="499.75" type="curve" smooth="yes"/>
      <point x="193.72500000000002" y="429.625"/>
      <point x="357.225" y="253.57500000000002"/>
    </contour>
  </outline>
</glyph>
<glyph name="acutecomb.case" format="2">
  <anchor x="0.0" y="700.0" name="_top"/>
  <anchor x="0.0" y="820.0" name="top"/>
  <outline>
    <contour>
      <point x="-31.225" y="740.0" type="line"/>
      <point x="30.75" y="740.0" type="line"/>
      <point x="132.525" y="854.9000000000001" type="line"/>
      <point x="15.674999999999999" y="854.9000000000001" type="line"/>
    </contour>
  </outline>
</glyph>
<glyph name="ast" format="2">
  <advance width="140.0"/>
  <outline>
    <contour>
      <point x="69.0" y="535.0" type="line"/>
      <point x="95.69999999999999" y="545.0" type="line"/>
      <point x="108.7" y="697.0" type="line"/>
      <point x="29.299999999999997" y="697.0" type="line"/>
      <point x="42.3" y="545.0" type="line"/>
    </contour>
  </outline>
</glyph>
<glyph name="brevecomb.case" format="2">
  <anchor x="0.0" y="700.0" name="_top"/>
  <anchor x="0.525" y="807.0" name="top"/>
  <outline>
    <contour>
      <point x="0.0" y="734.625" type="curve" smooth="yes"/>
      <point x="84.275" y="734.625"/>
      <point x="142.125" y="783.95"/>
      <point x="142.125" y="854.25" type="curve"/>
      <point x="64.4" y="854.25" type="line"/>
      <point x="65.925" y="822.5250000000001"/>
      <point x="41.125" y="796.275"/>
      <point x="0.0" y="796.275" type="curve" smooth="yes"/>
      <point x="-39.55" y="796.275"/>
      <point x="-65.925" y="822.5250000000001"/>
      <point x="-64.4" y="854.25" type="curve"/>
      <point x="-142.125" y="854.25" type="line"/>
      <point x="-142.125" y="783.95"/>
      <point x="-83.8" y="734.625"/>
    </contour>
  </outline>
</glyph>
<glyph name="eight.numr" format="2">
  <advance width="322.65"/>
  <outline>
    <contour>
      <point x="161.325" y="308.0" type="curve" smooth="yes"/>
      <point x="231.275" y="308.0"/>
      <point x="290.6" y="352.05"/>
      <point x="290.6" y="421.05" type="curve" smooth="yes"/>
      <point x="290.6" y="464.4"/>
      <point x="268.1" y="497.29999999999995"/>
      <point x="231.925" y="514.475" type="curve"/>
      <point x="231.925" y="516.475" type="line"/>
      <point x="263.5" y="530.95"/>
      <point x="280.125" y="564.575"/>
      <point x="280.125" y="598.625" type="curve" smooth="yes"/>
      <point x="280.125" y="662.575"/>
      <point x="234.7" y="706.475"/>
      <point x="161.325" y="706.475" type="curve" smooth="yes"/>
      <point x="75.15" y="706.475"/>
      <point x="41.05" y="649.825"/>
      <point x="41.05" y="597.05" type="curve" smooth="yes"/>
      <point x="41.05" y="564.0"/>
      <point x="59.675" y="530.95"/>
      <point x="90.30000000000001" y="516.475" type="curve"/>
      <point x="90.30000000000001" y="514.475" type="line"/>
      <point x="56.45" y="497.725"/>
      <point x="32.05" y="467.2"/>
      <point x="32.05" y="420.525" type="curve" smooth="yes"/>
      <point x="32.05" y="349.375"/>
      <point x="89.525" y="308.0"/>
    </contour>
    <contour>
      <point x="161.325" y="367.4" type="curve" smooth="yes"/>
      <point x="124.6" y="367.4"/>
      <point x="98.875" y="395.025"/>
      <point x="98.875" y="426.85" type="curve" smooth="yes"/>
      <point x="98.875" y="462.1"/>
      <point x="126.075" y="485.25"/>
      <point x="161.325" y="485.25" type="curve" smooth="yes"/>
      <point x="199.72500000000002" y="485.25"/>
      <point x="222.3" y="460.525"/>
      <point x="222.3" y="426.32500000000005" type="curve" smooth="yes"/>
      <point x="222.3" y="394.875"/>
      <point x="197.95" y="367.4"/>
    </contour>
    <contour>
      <point x="161.85000000000002" y="542.7" type="curve" smooth="yes"/>
      <point x="126.75" y="542.7"/>
      <point x="107.875" y="570.375"/>
      <point x="107.875" y="595.625" type="curve" smooth="yes"/>
      <point x="107.875" y="626.925"/>
      <point x="131.55" y="646.5999999999999"/>
      <point x="161.325" y="646.5999999999999" type="curve" smooth="yes"/>
      <point x="189.52499999999998" y="646.5999999999999"/>
      <point x="214.25" y="627.45"/>
      <point x="214.25" y="595.1" type="curve" smooth="yes"/>
      <point x="214.25" y="567.225"/>
      <point x="197.14999999999998" y="542.7"/>
    </contour>
  </outline>
</glyph>
<glyph name="f_f_i.ss11" format="2">
  <advance width="921.625"/>
  <anchor x="810.75" y="0.0" name="bottom_1"/>
  <anchor x="780.825" y="0.0" name="ogonek_1"/>
  <anchor x="810.75" y="497.125" name="top_1"/>
  <anchor x="379.92499999999995" y="0.0" name="caret_1"/>
  <anchor x="701.625" y="0.0" name="caret_2"/>
  <outline>
    <contour>
      <point x="115.1" y="0.0" type="line"/>
      <point x="221.22500000000002" y="0.0" type="line"/>
      <point x="221.22500000000002" y="546.475" type="line" smooth="yes"/>
      <point x="221.22500000000002" y="613.75"/>
      <point x="258.7" y="655.725"/>
      <point x="330.2" y="655.725" type="curve" smooth="yes"/>
      <point x="397.65" y="655.725"/>
      <point x="436.275" y="615.175"/>
      <point x="436.275" y="549.8" type="curve" smooth="yes"/>
      <point x="436.275" y="0.0" type="line"/>
      <point x="542.4" y="0.0" type="line"/>
      <point x="542.4" y="546.475" type="line" smooth="yes"/>
      <point x="542.4" y="613.75"/>
      <point x="579.875" y="655.725"/>
      <point x="651.375" y="655.725" type="curve" smooth="yes"/>
      <point x="718.825" y="655.725"/>
      <point x="757.45" y="615.175"/>
      <point x="757.45" y="549.8" type="curve"/>
      <point x="863.575" y="549.8" type="line"/>
      <point x="863.575" y="666.95"/>
      <point x="776.875" y="753.0"/>
      <point x="651.375" y="753.0" type="curve" smooth="yes"/>
      <point x="585.65" y="753.0"/>
      <point x="520.75" y="720.8"/>
      <point x="492.525" y="665.0250000000001" type="curve"/>
      <point x="486.525" y="665.0250000000001" type="line"/>
      <point x="457.775" y="721.8"/>
      <point x="393.35" y="753.0"/>
      <point x="330.2" y="753.0" type="curve" smooth="yes"/>
      <point x="201.60000000000002" y="753.0"/>
      <point x="115.1" y="666.95"/>
      <point x="115.1" y="551.9" type="curve" smooth="yes"/>
    </contour>
    <contour>
      <point x="18.425" y="402.32500000000005" type="line"/>
      <point x="694.0" y="402.32500000000005" type="line"/>
      <point x="694.0" y="497.125" type="line"/>
      <point x="18.425" y="497.125" type="line"/>
    </contour>
    <component base="idotless" xOffset="686.4"/>
  </outline>
</glyph>
<glyph name="f_i.ss11" format="2">
  <advance width="615.35"/>
  <anchor x="491.475" y="0.0" name="bottom_1"/>
  <anchor x="461.55" y="0.0" name="ogonek_1"/>
  <anchor x="491.475" y="497.125" name="top_1"/>
  <anchor x="379.92499999999995" y="0.0" name="caret_1"/>
  <outline>
    <contour>
      <point x="115.1" y="0.0" type="line"/>
      <point x="221.22500000000002" y="0.0" type="line"/>
      <point x="221.22500000000002" y="546.475" type="line" smooth="yes"/>
      <point x="221.22500000000002" y="613.75"/>
      <point x="258.7" y="655.725"/>
      <point x="330.2" y="655.725" type="curve" smooth="yes"/>
      <point x="397.65" y="655.725"/>
      <point x="436.275" y="615.175"/>
      <point x="436.275" y="549.8" type="curve"/>
      <point x="542.4" y="549.8" type="line"/>
      <point x="542.4" y="666.95"/>
      <point x="455.7" y="753.0"/>
      <point x="330.2" y="753.0" type="curve" smooth="yes"/>
      <point x="201.60000000000002" y="753.0"/>
      <point x="115.1" y="666.95"/>
      <point x="115.1" y="551.9" type="curve" smooth="yes"/>
    </contour>
    <contour>
      <point x="18.425" y="402.32500000000005" type="line"/>
      <point x="372.825" y="402.32500000000005" type="line"/>
      <point x="372.825" y="497.125" type="line"/>
      <point x="18.425" y="497.125" type="line"/>
    </contour>
    <component base="idotless" xOffset="367.125"/>
  </outline>
</glyph>
<glyph name="f_l.ss11" format="2">
  <advance width="630.6"/>
  <anchor x="379.92499999999995" y="0.0" name="caret_1"/>
  <outline>
    <contour>
      <point x="115.1" y="0.0" type="line"/>
      <point x="221.22500000000002" y="0.0" type="line"/>
      <point x="221.22500000000002" y="536.975" type="line" smooth="yes"/>
      <point x="221.22500000000002" y="609.95"/>
      <point x="264.9" y="655.25"/>
      <point x="337.825" y="655.25" type="curve" smooth="yes"/>
      <point x="407.65" y="655.25"/>
      <point x="453.425" y="610.9"/>
      <point x="453.425" y="540.3" type="curve" smooth="yes"/>
      <point x="453.425" y="0.0" type="line"/>
      <point x="559.55" y="0.0" type="line"/>
      <point x="559.55" y="547.15" type="line" smooth="yes"/>
      <point x="559.55" y="668.85"/>
      <point x="468.075" y="753.0"/>
      <point x="337.825" y="753.0" type="curve" smooth="yes"/>
      <point x="204.47500000000002" y="753.0"/>
      <point x="115.1" y="668.85"/>
      <point x="115.1" y="547.15" type="curve" smooth="yes"/>
    </contour>
    <contour>
      <point x="18.425" y="402.32500000000005" type="line"/>
      <point x="380.45" y="402.32500000000005" type="line"/>
      <point x="380.45" y="497.125" type="line"/>
      <point x="18.425" y="497.125" type="line"/>
    </contour>
  </outline>
</glyph>
<glyph name="hookabovecombviet.case" format="2">
  <advance width="300.0"/>
  <anchor x="0.0" y="700.0" name="_top"/>
  <anchor x="0.0" y="864.225" name="top"/>
  <outline>
    <contour>
      <point x="0.0" y="721.45" type="line"/>
      <point x="36.5" y="742.3499999999999"/>
      <point x="57.125" y="767.825"/>
      <point x="57.125" y="801.675" type="curve" smooth="yes"/>
      <point x="57.125" y="845.625"/>
      <point x="19.275" y="892.375"/>
      <point x="-52.75" y="892.375" type="curve" smooth="yes"/>
      <point x="-83.225" y="892.375"/>
      <point x="-110.875" y="883.05"/>
      <point x="-133.825" y="868.575" type="curve"/>
      <point x="-99.80000000000001" y="807.175" type="line"/>
      <point x="-86.375" y="815.65"/>
      <point x="-67.95" y="821.125"/>
      <point x="-51.0" y="821.125" type="curve" smooth="yes"/>
      <point x="-26.725" y="821.125"/>
      <point x="-10.575" y="807.6500000000001"/>
      <point x="-10.575" y="791.025" type="curve" smooth="yes"/>
      <point x="-10.575" y="778.4"/>
      <point x="-19.625" y="767.875"/>
      <point x="-37.425" y="760.4" type="curve"/>
    </contour>
  </outline>
</glyph>
<glyph name="tildecomb.case" format="2">
  <anchor x="0.0" y="700.0" name="_top"/>
  <anchor x="0.0" y="815.875" name="top"/>
  <outline>
    <contour>
      <point x="61.15" y="735.05" type="curve" smooth="yes"/>
      <point x="115.05000000000001" y="735.05"/>
      <point x="155.325" y="775.85"/>
      <point x="155.325" y="830.2249999999999" type="curve"/>
      <point x="94.4" y="830.2249999999999" type="line"/>
      <point x="94.4" y="815.125"/>
      <point x="83.82499999999999" y="801.075"/>
      <point x="62.725" y="801.075" type="curve" smooth="yes"/>
      <point x="17.675" y="801.075"/>
      <point x="12.85" y="837.2750000000001"/>
      <point x="-63.25" y="837.2750000000001" type="curve" smooth="yes"/>
      <point x="-116.625" y="837.2750000000001"/>
      <point x="-156.89999999999998" y="796.475"/>
      <point x="-156.89999999999998" y="742.1" type="curve"/>
      <point x="-97.025" y="742.1" type="line"/>
      <point x="-97.025" y="757.2"/>
      <point x="-85.925" y="771.25"/>
      <point x="-63.775" y="771.25" type="curve" smooth="yes"/>
      <point x="-19.25" y="771.25"/>
      <point x="-14.95" y="735.05"/>
    </contour>
  </outline>
</glyph>
<glyph name="zero.zero" format="2">
  <advance width="632.0"/>
  <outline>
    <contour>
      <point x="133.05" y="123.575" type="line"/>
      <point x="211.575" y="66.675" type="line"/>
      <point x="489.55" y="585.575" type="line"/>
      <point x="404.75" y="635.825" type="line"/>
    </contour>
    <component base="zero"/>
  </outline>
</glyph>
